<?xml version="1.0" encoding="UTF-8" standalone="no"?>
<!-- Created with Inkscape (http://www.inkscape.org/) -->

<svg
   width="7.9375057mm"
   height="4.3242135mm"
   viewBox="0 0 7.9375057 4.3242135"
   version="1.1"
   id="svg5"
   inkscape:version="1.2.1 (9c6d41e, 2022-07-14)"
   sodipodi:docname="arrow down.svg"
   xmlns:inkscape="http://www.inkscape.org/namespaces/inkscape"
   xmlns:sodipodi="http://sodipodi.sourceforge.net/DTD/sodipodi-0.dtd"
   xmlns="http://www.w3.org/2000/svg"
   xmlns:svg="http://www.w3.org/2000/svg">
  <sodipodi:namedview
     id="namedview7"
     pagecolor="#ffffff"
     bordercolor="#666666"
     borderopacity="1.0"
     inkscape:pageshadow="2"
     inkscape:pageopacity="0.0"
     inkscape:pagecheckerboard="0"
     inkscape:document-units="mm"
     showgrid="false"
     fit-margin-top="0"
     fit-margin-left="0"
     fit-margin-right="0"
     fit-margin-bottom="0"
     inkscape:zoom="15.78348"
     inkscape:cx="7.1277055"
     inkscape:cy="5.1953053"
     inkscape:window-width="1920"
     inkscape:window-height="1021"
     inkscape:window-x="0"
     inkscape:window-y="0"
     inkscape:window-maximized="1"
     inkscape:current-layer="layer1"
     inkscape:showpageshadow="2"
     inkscape:deskcolor="#d1d1d1" />
  <defs
     id="defs2">
    <clipPath
       clipPathUnits="userSpaceOnUse"
       id="clipPath838">
      <path
         d="M 0,0 H 3375 V 3406.25 H 0 Z"
         clip-rule="evenodd"
         id="path836" />
    </clipPath>
    <clipPath
       clipPathUnits="userSpaceOnUse"
       id="clipPath850">
      <path
         d="M 0,0 H 3375 V 3375 H 0 Z"
         clip-rule="evenodd"
         id="path848" />
    </clipPath>
    <clipPath
       clipPathUnits="userSpaceOnUse"
       id="clipPath862">
      <path
         d="M 0,0 H 3375 V 3375 H 0 Z"
         clip-rule="evenodd"
         id="path860" />
    </clipPath>
    <clipPath
       clipPathUnits="userSpaceOnUse"
       id="clipPath874">
      <path
         d="M 0,0 H 3375 V 3375 H 0 Z"
         clip-rule="evenodd"
         id="path872" />
    </clipPath>
    <clipPath
       clipPathUnits="userSpaceOnUse"
       id="clipPath886">
      <path
         d="M 0,0 H 3375 V 3406.25 H 0 Z"
         id="path884" />
    </clipPath>
    <clipPath
       clipPathUnits="userSpaceOnUse"
       id="clipPath892">
      <path
         d="M 0,0 H 3375 V 3375 H 0 Z"
         id="path890" />
    </clipPath>
    <clipPath
       clipPathUnits="userSpaceOnUse"
       id="clipPath898">
      <path
         d="M 0,0 H 3375 V 3375 H 0 Z"
         id="path896" />
    </clipPath>
    <clipPath
       clipPathUnits="userSpaceOnUse"
       id="clipPath904">
      <path
         d="M 90.098877,771.29089 H 3283.8489 V 2465.041 H 90.098877 Z"
         id="path902" />
    </clipPath>
    <clipPath
       clipPathUnits="userSpaceOnUse"
       id="clipPath910">
      <path
         d="M 90.098877,771.29089 H 3283.8489 V 2465.041 H 90.098877 Z"
         id="path908" />
    </clipPath>
    <clipPath
       clipPathUnits="userSpaceOnUse"
       id="clipPath973">
      <path
         d="M 0,0 H 3375 V 3406.25 H 0 Z"
         clip-rule="evenodd"
         id="path971" />
    </clipPath>
    <clipPath
       clipPathUnits="userSpaceOnUse"
       id="clipPath985">
      <path
         d="M 0,0 H 3375 V 3375 H 0 Z"
         clip-rule="evenodd"
         id="path983" />
    </clipPath>
    <clipPath
       clipPathUnits="userSpaceOnUse"
       id="clipPath997">
      <path
         d="M 0,0 H 3375 V 3375 H 0 Z"
         clip-rule="evenodd"
         id="path995" />
    </clipPath>
    <clipPath
       clipPathUnits="userSpaceOnUse"
       id="clipPath1009">
      <path
         d="M 0,0 H 3375 V 3375 H 0 Z"
         clip-rule="evenodd"
         id="path1007" />
    </clipPath>
    <clipPath
       clipPathUnits="userSpaceOnUse"
       id="clipPath1021">
      <path
         d="M 0,0 H 3375 V 3406.25 H 0 Z"
         id="path1019" />
    </clipPath>
    <clipPath
       clipPathUnits="userSpaceOnUse"
       id="clipPath1027">
      <path
         d="M 0,0 H 3375 V 3375 H 0 Z"
         id="path1025" />
    </clipPath>
    <clipPath
       clipPathUnits="userSpaceOnUse"
       id="clipPath1033">
      <path
         d="M 0,0 H 3375 V 3375 H 0 Z"
         id="path1031" />
    </clipPath>
    <clipPath
       clipPathUnits="userSpaceOnUse"
       id="clipPath1039">
      <path
         d="M 91.124252,772.56055 H 3284.8743 V 2466.3106 H 91.124252 Z"
         id="path1037" />
    </clipPath>
    <clipPath
       clipPathUnits="userSpaceOnUse"
       id="clipPath1045">
      <path
         d="M 91.124252,772.56055 H 3284.8743 V 2466.3106 H 91.124252 Z"
         id="path1043" />
    </clipPath>
    <clipPath
       clipPathUnits="userSpaceOnUse"
       id="clipPath2314">
      <rect
         style="opacity:0.639656;fill:#005522;stroke:#aa0000;stroke-width:7.86744;stroke-linecap:square;paint-order:markers stroke fill"
         id="rect2316"
         width="56.735706"
         height="35.203289"
         x="-53.325054"
         y="3.1653285"
         rx="9.5543566"
         transform="rotate(-90)" />
    </clipPath>
  </defs>
  <g
     inkscape:label="Layer 1"
     inkscape:groupmode="layer"
     id="layer1"
     transform="translate(12.436176,-17.302283)">
    <g
       id="g882"
       clip-path="url(#clipPath886)"
       transform="matrix(0.00256449,0,0,0.00256449,-12.783739,15.304923)">
      <g
         id="g888"
         clip-path="url(#clipPath892)">
        <g
           id="g894"
           clip-path="url(#clipPath898)">
          <g
             id="g900"
             clip-path="url(#clipPath904)">
            <g
               id="g906"
               clip-path="url(#clipPath910)">
              <g
                 id="g912"
                 transform="matrix(0,66.683075,-66.754486,0,3325.7964,24.440491)">
                <path
                   d="m 13.002,1.6992201 c -0.03838,-0.036399 -0.07939,-0.069544 -0.123029,-0.099436 -0.04364,-0.029893 -0.08936,-0.056159 -0.137169,-0.078798 -0.04781,-0.022639 -0.0971,-0.041368 -0.147873,-0.056188 -0.05078,-0.014819 -0.102405,-0.025544 -0.154884,-0.032173 -0.05248,-0.00663 -0.105151,-0.00908 -0.158018,-0.00735 -0.05287,0.00173 -0.105267,0.00761 -0.157201,0.01765 -0.05193,0.01004 -0.102752,0.024111 -0.152453,0.042212 -0.0497,0.018102 -0.09766,0.040008 -0.143893,0.065719 -0.04622,0.025711 -0.09014,0.054905 -0.131731,0.087582 -0.04159,0.032677 -0.08035,0.068428 -0.116279,0.1072538 -0.03592,0.038826 -0.06856,0.08024 -0.09791,0.1242437 -0.02935,0.044004 -0.05505,0.090046 -0.0771,0.1381264 -0.02205,0.048081 -0.04017,0.097599 -0.05436,0.1485548 -0.01419,0.050956 -0.02428,0.1027114 -0.03026,0.1552672 -0.006,0.052556 -0.0078,0.1052549 -0.0054,0.1580971 0.0024,0.052842 0.0089,0.1051659 0.01958,0.1569721 L 15.87014,24.60742 11.334,46.588871 c -0.01068,0.05181 -0.0172,0.10413 -0.01958,0.156971 -0.0024,0.05284 -5.72e-4,0.105537 0.0054,0.158092 0.006,0.05256 0.01607,0.104313 0.03027,0.15527 0.01419,0.05095 0.03232,0.100472 0.05437,0.148548 0.02205,0.04808 0.04775,0.09412 0.0771,0.138119 0.02935,0.04401 0.06199,0.08542 0.09791,0.124245 0.03592,0.03883 0.07468,0.07458 0.116277,0.107254 0.04159,0.03267 0.0855,0.06187 0.13173,0.08758 0.04622,0.02571 0.09419,0.04762 0.143889,0.06572 0.0497,0.0181 0.100517,0.03217 0.15245,0.04221 0.05193,0.01004 0.104333,0.01592 0.1572,0.01765 0.05287,0.0017 0.105538,-7.25e-4 0.158015,-0.0074 0.05248,-0.0066 0.104105,-0.01735 0.154881,-0.03217 0.05078,-0.01482 0.100068,-0.03354 0.147874,-0.05618 0.04781,-0.02264 0.09353,-0.0489 0.137167,-0.0788 0.04364,-0.02989 0.08465,-0.06303 0.123031,-0.09943 L 36.375,25.333 c 0.02454,-0.02331 0.04784,-0.04781 0.06989,-0.07349 0.02205,-0.02568 0.04275,-0.05241 0.0621,-0.08018 0.01935,-0.02778 0.03724,-0.05646 0.05367,-0.08605 0.01643,-0.02959 0.03133,-0.05994 0.04469,-0.09104 0.01335,-0.0311 0.0251,-0.0628 0.03524,-0.0951 0.01014,-0.0323 0.01861,-0.06502 0.02543,-0.09818 0.0068,-0.03316 0.01194,-0.06657 0.01536,-0.10025 0.0034,-0.03368 0.0051,-0.06744 0.0051,-0.101288 0,-0.03385 -0.0017,-0.06761 -0.0051,-0.101288 -0.0034,-0.03368 -0.0085,-0.06709 -0.01536,-0.10025 -0.0068,-0.03316 -0.01529,-0.06588 -0.02543,-0.09818 -0.01014,-0.0323 -0.02188,-0.064 -0.03524,-0.0951 -0.01336,-0.03111 -0.02825,-0.06145 -0.04469,-0.09105 -0.01643,-0.02959 -0.03432,-0.05828 -0.05367,-0.08605 -0.01934,-0.02778 -0.04005,-0.0545 -0.0621,-0.08018 -0.02206,-0.02568 -0.04535,-0.05017 -0.06989,-0.07348 z"
                   style="fill:#41535d;fill-opacity:1;fill-rule:nonzero;stroke:none"
                   id="path914"
                   clip-path="url(#clipPath2314)" />
              </g>
            </g>
          </g>
        </g>
      </g>
    </g>
  </g>
</svg>
