<?xml version="1.0" encoding="UTF-8" standalone="no"?>
<!-- Created with Inkscape (http://www.inkscape.org/) -->

<svg
   version="1.1"
   id="svg2"
   width="835.94006"
   height="607.91498"
   viewBox="0 0 835.94006 607.91498"
   xmlns="http://www.w3.org/2000/svg"
   xmlns:svg="http://www.w3.org/2000/svg">
  <defs
     id="defs6">
    <clipPath
       clipPathUnits="userSpaceOnUse"
       id="clipPath54">
      <path
         d="M 337.5,736.93018 H 2950 V 2636.9302 H 337.5 Z"
         clip-rule="evenodd"
         id="path52" />
    </clipPath>
  </defs>
  <g
     id="g10"
     transform="matrix(0.31999998,0,0,0.31999998,-107.99999,-235.86012)">
    <g
       id="g48">
      <g
         id="g50"
         clip-path="url(#clipPath54)">
        <g
           id="g56"
           transform="matrix(3.8022122,0,0,3.799469,337.5,737.06293)">
          <path
             d="m 664.88672,447.51172 c 0,9.79297 -8.09766,17.76953 -18.49219,17.78125 l -302.875,12.53125 -303.328124,-12.54297 c -9.9375,0 -18.03125,-7.97656 -18.03125,-17.76953 V 75.199219 c 0,-9.835938 8.09375,-17.832031 18.03125,-17.832031 H 53.429688 V 434.52344 c 0.777343,7.80078 6.929687,10.59765 11.652343,11.07031 0.988282,0.0977 101.355469,-5.11719 179.292969,-5.42187 63.65234,0 97.69531,13.34375 99.12109,13.34375 1.47657,0 35.4961,-13.34375 101.1836,-13.34375 75.90625,0.30468 176.26953,5.4375 177.2539,5.42187 7.375,-0.0937 11.42969,-5.52734 11.65625,-11.07031 V 57.363281 h 13.26954 c 9.93359,0 18.03125,8 18.03125,17.835938 l -0.004,372.312501 z M 314.08594,423.63281 c -17.09375,-2.99218 -40.79688,-5.625 -71.83203,-5.625 -42.41797,0.16797 -92.02735,1.8125 -128.24219,3.25 35.64453,-10.86328 86.16797,-23.5039 128.80078,-23.69922 32.96875,0 56.31641,13.41016 71.27344,26.07422 z M 75.601563,64.289063 C 99.902344,54.519531 184.65625,22.171875 242.14063,22.171875 298.16016,22.789063 325.10547,47.332031 332.4375,55.375 v 354.75781 c -17.83203,-16.22265 -47.54687,-34.73828 -90.21094,-34.73828 -61.11718,0.26953 -135.20312,23.94531 -166.624997,35.05078 z M 573.11328,421.26563 c -36.48437,-1.44532 -86.76172,-3.09375 -130.44531,-3.25782 -29.80859,0 -52.79297,2.57813 -69.55469,5.53125 15.01563,-12.64062 38.45313,-25.98047 71.61328,-25.98047 42.375,0.1875 92.78907,12.84375 128.38672,23.70704 z M 354.60156,55.386719 c 7.42578,-8.105469 34.57032,-32.597656 91.79297,-33.226563 56.17969,0 140.7461,32.347657 165.03125,42.128907 V 410.44531 c -31.43359,-11.10547 -105.60156,-34.78125 -167.20703,-35.05078 -42.27734,0 -71.82031,18.48438 -89.61719,34.6836 z M 646.85938,35.203125 H 597.67969 C 560.28125,21.363281 494.52734,0.0117188 444.66406,0.0117188 389.31641,0.61718804 357.84375,22.183594 343.71875,35.203125 h -0.43359 C 329.04688,22.1875 297.22656,0.61718804 240.65234,0 192,0 126.57031,21.363281 89.300781,35.203125 H 40.191406 C 18.03125,35.203125 0,53.148438 0,75.199219 V 447.50781 c 0,22.01172 18.03125,39.92578 39.710938,39.92578 0.02344,0 303.359372,12.55079 303.359372,12.55079 0.14453,0.0156 0.30078,0.0156 0.44922,0.0156 0.15235,0 0.30078,0 0.46094,-0.0156 l 302.87891,-12.54297 c 22.15234,0 40.1914,-17.91407 40.1914,-39.9336 V 75.199219 c 0,-22.054688 -18.03906,-39.996094 -40.1914,-39.996094"
             style="fill:#292e31;fill-opacity:1;fill-rule:nonzero;stroke:none"
             id="path58" />
        </g>
      </g>
    </g>
  </g>
</svg>
