<?xml version="1.0" encoding="UTF-8" standalone="no"?>
<!-- Created with Inkscape (http://www.inkscape.org/) -->

<svg
   version="1.1"
   id="svg2"
   width="1079.9999"
   height="1003.5656"
   viewBox="0 0 1079.9999 1003.5656"
   xmlns="http://www.w3.org/2000/svg"
   xmlns:svg="http://www.w3.org/2000/svg">
  <defs
     id="defs6">
    <clipPath
       clipPathUnits="userSpaceOnUse"
       id="clipPath18">
      <path
         d="M 0,0 H 3375 V 3406.25 H 0 Z"
         clip-rule="evenodd"
         id="path16" />
    </clipPath>
    <clipPath
       clipPathUnits="userSpaceOnUse"
       id="clipPath30">
      <path
         d="M 0,0 H 3375 V 3375 H 0 Z"
         clip-rule="evenodd"
         id="path28" />
    </clipPath>
    <clipPath
       clipPathUnits="userSpaceOnUse"
       id="clipPath42">
      <path
         d="M 0,0 H 3375 V 3375 H 0 Z"
         clip-rule="evenodd"
         id="path40" />
    </clipPath>
    <clipPath
       clipPathUnits="userSpaceOnUse"
       id="clipPath54">
      <path
         d="M 333.1915,119.90868 H 3375.0001 V 2771.863 H 333.1915 Z"
         clip-rule="evenodd"
         id="path52" />
    </clipPath>
    <clipPath
       clipPathUnits="userSpaceOnUse"
       id="clipPath66">
      <path
         d="M 0,260.69498 H 2990.1064 V 3256.0514 H 0 Z"
         clip-rule="evenodd"
         id="path64" />
    </clipPath>
    <clipPath
       clipPathUnits="userSpaceOnUse"
       id="clipPath407">
      <rect
         style="fill:#ffffff;stroke-width:105.886;stroke-linecap:square;paint-order:markers stroke fill"
         id="rect409"
         width="3374.9998"
         height="3374.9998"
         x="0"
         y="0" />
    </clipPath>
  </defs>
  <g
     id="g10"
     transform="matrix(0.31999998,0,0,0.31999998,0,-38.370775)">
    <g
       id="g12">
      <g
         id="g14"
         clip-path="url(#clipPath18)">
        <g
           id="g20"
           transform="scale(3.125)">
          <path
             d="M 0,0 H 1080 V 1090 H 0 Z"
             style="fill:#ffffff;fill-opacity:1;fill-rule:nonzero;stroke:none"
             id="path22" />
        </g>
      </g>
    </g>
    <g
       id="g24">
      <g
         id="g26"
         clip-path="url(#clipPath30)">
        <g
           id="g32"
           transform="scale(3.125)">
          <path
             d="M 0,0 H 1080 V 1080 H 0 Z"
             style="fill:#ffffff;fill-opacity:1;fill-rule:nonzero;stroke:none"
             id="path34" />
        </g>
      </g>
    </g>
    <g
       id="g36">
      <g
         id="g38"
         clip-path="url(#clipPath42)">
        <g
           id="g44"
           transform="scale(3.125)">
          <path
             d="M 0,0 H 1080 V 1080 H 0 Z"
             style="fill:#ffffff;fill-opacity:1;fill-rule:nonzero;stroke:none"
             id="path46" />
        </g>
      </g>
    </g>
    <g
       id="g420">
      <g
         id="g48"
         clip-path="url(#clipPath407)">
        <g
           id="g50"
           clip-path="url(#clipPath54)">
          <g
             id="g56"
             transform="matrix(2.8723404,0,0,2.8731899,0,119.90868)">
            <path
               d="m 1169.3711,13.859375 c -16.7617,-4.3476562 -33.5313,-8.6875 -50.293,-13.03124994 -1.2968,-0.72656306 -2.9062,-1.03906307 -4.7695,-0.67968705 -0.8594,0.089843 -1.6484,0.32031199 -2.3477,0.67187401 -3.2617,1.05078198 -6.4804,2.21874998 -9.6796,3.41015718 C 1091.3516,8.28125 1080.6016,12.730469 1070,17.449219 1054.0586,24.558594 1038.4492,32.300781 1023.1289,40.5 c -20.5898,11.019531 -40.63671,22.898438 -60.15234,35.460938 -24.3789,15.6875 -47.95703,32.445312 -70.70312,50.082032 -26.53516,20.57422 -51.92969,42.38281 -76.16406,65.22266 -27.92579,26.3164 -54.3125,54.0039 -79.15625,82.80078 -28.19141,32.67968 -54.48438,66.71093 -78.82032,101.90625 -27.42968,39.67187 -52.40625,80.76562 -75.0664,122.89453 -25.51563,47.44531 -48.13282,96.21094 -68.10938,145.83984 -3.88672,9.65625 -7.66797,19.35156 -11.35547,29.07422 -12.89062,-10.05469 -25.78515,-20.10547 -38.67578,-30.16016 -33.79687,-26.35156 -67.59375,-52.70703 -101.39062,-79.0625 -31.0586,-24.21875 -62.11719,-48.4375 -93.17578,-72.65625 -7.89454,-6.15625 -15.78907,-12.30859 -23.6836,-18.46484 -2.01562,-1.57422 -3.78125,-3.08594 -6.28515,-4.02734 -7.82813,-2.94922 -15.9336,-6.77735 -24.08204,-8.84375 -3.09375,-0.78516 -6.98828,0.28515 -10.11718,0.76562 -5.45313,0.83985 -10.90235,1.67578 -16.35157,2.51172 -3.43359,0.52734 -8.07812,0.50391 -10.94921,2.53516 -1.57813,1.11718 -2.32032,2.55078 -3.25782,4.08593 -8.71094,14.25391 -17.42187,28.50391 -26.13281,42.75391 -9.70703,15.88281 -19.41797,31.76953 -29.12891,47.65234 -2.26562,3.71094 -4.85937,6.79688 -4.0664,11.27735 0.91797,5.20312 2.03515,10.38672 3.05468,15.57812 3.89063,19.84375 7.78516,39.69141 11.67579,59.53907 1.19921,6.11328 2.13671,12.33203 3.60937,18.39843 0.86328,3.55469 3.5,5.40625 7.01563,6.70703 3.07031,1.13282 6.13671,2.26563 9.1914,3.42579 1.08594,0.41406 2.17188,0.82812 3.25781,1.24609 0.59375,0.22656 1.1875,0.45312 1.78125,0.68359 0.3086,0.11719 0.61719,0.23828 0.92579,0.35547 0.0508,0.0195 0.0859,0.0312 0.125,0.0469 3.07421,1.19531 6.14843,2.40234 9.21484,3.61718 17.41797,6.90625 34.6875,14.13672 51.82422,21.6211 51.4375,22.47265 101.74609,47.23437 150.25781,74.66015 57.09766,32.27344 112.12891,68.30079 160.96485,110.61329 11.70703,10.14062 23.01953,20.66796 33.85937,31.59375 3.75391,3.78515 11.53516,1.96484 12.73438,-3.08594 1.51171,-6.39063 3.22656,-12.7461 4.94921,-19.09375 4.79297,-17.64844 10,-35.20703 15.47657,-52.6836 8.34765,-26.63671 17.35156,-53.09765 26.9375,-79.375 12.16797,-33.36328 25.28125,-66.4375 39.33593,-99.16796 16.15625,-37.6211 33.59375,-74.77735 52.39844,-111.35157 20.63672,-40.14843 42.91797,-79.59765 67.0586,-118.07031 25.16015,-40.09375 52.34765,-79.13672 81.89453,-116.63281 30.0625,-38.14063 62.65625,-74.63672 98.04687,-108.72656 35.44922,-34.14454 73.72657,-65.96094 115.06637,-94.01172 20.8789,-14.16407 42.5,-27.406254 64.8399,-39.554691 5.1289,-2.78125 12.8203,-5.261719 15.25,-10.46875 0.8203,-1.773438 1.4101,-3.660156 2.1094,-5.472656 3.2109,-8.257813 6.4101,-16.527344 9.6093,-24.800782 1.9805,-5.097656 3.9493,-10.1875 5.9219,-15.277343 1.3867,-3.582032 -1.582,-7.640625 -5.3203,-8.601563"
               style="fill:#299740;fill-opacity:1;fill-rule:nonzero;stroke:none"
               id="path58" />
          </g>
        </g>
      </g>
      <g
         id="g60">
        <g
           id="g62"
           clip-path="url(#clipPath66)">
          <g
             id="g68"
             transform="matrix(2.8723404,0,0,2.8731899,0,119.90868)">
            <path
               d="m 939.30078,261.42969 c -20.92187,22.30859 -41.29297,46.01172 -60.87109,70.85937 -0.55469,0.70313 -1.10547,1.41407 -1.66016,2.11719 44.9375,67.73438 71.14453,148.94531 71.14453,236.17188 0,236 -191.79297,427.99609 -427.53515,427.99609 -235.74219,0 -427.53516,-191.99609 -427.53516,-427.99609 0,-235.9961 191.79297,-427.99219 427.53516,-427.99219 89.89453,0 173.39453,27.91797 242.30859,75.55078 13.3125,-13.91016 26.90625,-27.41406 40.69141,-40.40625 9.07812,-8.55469 18.3125,-16.94922 27.65625,-25.16406 C 797.71094,127.68359 761.55859,106.94141 722.94922,90.601563 658.76563,63.421875 590.60938,49.640625 520.37891,49.640625 c -70.23047,0 -138.38282,13.78125 -202.57032,40.960938 C 255.83984,116.83594 200.19141,154.39062 152.41406,202.21875 104.64063,250.04688 67.125,305.75391 40.914063,367.78906 13.765625,432.04297 0,500.27344 0,570.57813 c 0,70.30859 13.765625,138.53515 40.914063,202.78906 26.207031,62.03515 63.722657,117.74219 111.499997,165.57422 47.77344,47.82422 103.42188,85.37889 165.39453,111.61719 64.1875,27.1797 132.34375,40.9609 202.57032,40.9609 70.23047,0 138.38281,-13.7812 202.57031,-40.9609 61.97266,-26.2383 117.62109,-63.79297 165.39453,-111.61719 47.77734,-47.83203 85.29297,-103.53907 111.50391,-165.57422 27.14064,-64.25391 40.91404,-132.48047 40.91404,-202.78906 0,-70.30469 -13.7734,-138.53125 -40.91404,-202.78907 -16.03125,-37.9414 -36.30078,-73.50781 -60.54688,-106.35937"
               style="fill:#299740;fill-opacity:1;fill-rule:nonzero;stroke:none"
               id="path70" />
          </g>
        </g>
      </g>
    </g>
  </g>
</svg>
